# xmcd
#
# Track frame offsets: 
#        150
#        23290
#        42661
#        54887
#        79243
#        99473
#        117160
#        142676
#        159573
#        186985
#        203794
#        223307
#        237164
#        266089
#        291558
#
# Disc length: 4059 seconds
#
# Revision: 0
# Processed by: cddbd v1.5.2PL0 Copyright (c) Steve Scherf et al.
# Submitted via: ExactAudioCopy v0.99pb4
#
DISCID=d70fd90f
DTITLE=Roland Van Campenhout - Parcours
DYEAR=2009
DGENRE=Blues
TTITLE0=Moonlight lady
TTITLE1=Keep from keepin' on
TTITLE2=Last Letter Home
TTITLE3=The end is not in sight (Live at AB Club with El Fish)
TTITLE4=17 Years in a phone booth (Live at AB Club with El Fish)
TTITLE5=Brick Blues (Live at Bourlaschouwburg)
TTITLE6=Way beyond the moon (Live at AB Club with El Fish)
TTITLE7=Wayward wind (Live at Bourlaschouwburg)
TTITLE8=Kalkaringi
TTITLE9=The last tribe - Too late to say
TTITLE10=The love you save
TTITLE11=The last tribe - Nice wind on Anson Road (Edit)
TTITLE12=Chinese swans
TTITLE13=Ballad of Jean Harlow
TTITLE14=Dreaming my dreams with you
EXTD=
EXTT0=
EXTT1=
EXTT2=
EXTT3=
EXTT4=
EXTT5=
EXTT6=
EXTT7=
EXTT8=
EXTT9=
EXTT10=
EXTT11=
EXTT12=
EXTT13=
EXTT14=
PLAYORDER=
